<svg width="1470" height="569" viewBox="0 0 1470 569" fill="none" xmlns="http://www.w3.org/2000/svg">
<path fill-rule="evenodd" clip-rule="evenodd" d="M225.599 29.1111L199.681 1.53794C244.496 -4.25124 362.743 3.17256 477.212 79.1812C478.701 89.6792 478.38 100.144 478.38 100.144L486.817 104.722L486.864 104.794L486.881 104.687L487.053 104.792C491.784 112.938 496.567 125.084 499.623 139.375C503.319 156.668 504.372 176.575 500.062 195.612C495.719 214.794 487.477 230.624 479.406 242.204C473.443 250.76 467.756 256.741 464.019 260.017C449.397 260.324 422.176 270.159 414.394 304.254C390.945 317.708 354.132 331.157 305.506 331.157C259.057 331.157 211.674 317.669 176.056 291.549C140.582 265.535 116.758 227.027 116.758 176.329C116.758 136 134.783 104.497 157.645 81.3285C180.581 58.0844 211.936 39.2517 230.12 33.0013L225.599 29.1111ZM426.47 95.267C417.458 105.116 409.031 109.841 406.625 111.122C354.001 99.3779 335.041 70.8148 335.041 70.8148C384.679 70.4936 429.481 82.8803 462.26 103.834C462.26 103.834 444.516 97.8015 426.47 95.267Z" fill="white"/>
<path d="M198.942 36.7383C86.113 59.5219 0 161.391 0 284.576C0 440.316 131.135 569 292.898 569C413.69 569 514.239 494.858 566.812 395.664C496.892 412.31 413.412 382.714 412.879 318.019C387.71 331.007 351.467 342.536 305.505 342.536C257.061 342.536 207.235 328.507 169.369 300.738C131.358 272.865 105.421 231.114 105.421 176.329C105.421 132.272 125.199 98.039 149.59 73.3196C163.703 59.1529 183.051 45.7082 198.942 36.7383Z" fill="white"/>
<path d="M510.706 136.987C509.176 129.836 507.221 123.073 504.999 116.927C535.331 139.681 558.953 170.734 556.984 214.001C554.15 276.319 516.651 300.838 492.642 304.924C504.167 285.514 494.563 273.254 490.722 269.168C488.854 267.179 484.996 263.831 478.371 261.741C481.649 258.136 485.184 253.765 488.694 248.727C497.439 236.181 506.389 219.011 511.116 198.134C515.876 177.114 514.66 155.485 510.706 136.987Z" fill="white"/>
<path d="M734.895 148.076C733.656 144.111 731.946 140.562 729.764 137.429C727.632 134.248 725.054 131.531 722.03 129.279C719.056 127.027 715.635 125.339 711.768 124.213C707.901 123.038 703.687 122.451 699.126 122.451C690.946 122.451 683.658 124.482 677.263 128.545C670.867 132.608 665.835 138.58 662.167 146.461C658.548 154.293 656.738 163.838 656.738 175.097C656.738 186.453 658.548 196.072 662.167 203.953C665.786 211.834 670.818 217.83 677.263 221.942C683.708 226.005 691.194 228.036 699.721 228.036C707.455 228.036 714.148 226.568 719.799 223.631C725.501 220.694 729.888 216.533 732.962 211.148C736.036 205.715 737.573 199.351 737.573 192.058L743.819 193.012H702.472V171.719H764.269V189.782C764.269 202.656 761.493 213.792 755.941 223.19C750.388 232.589 742.753 239.833 733.036 244.924C723.319 249.966 712.165 252.487 699.572 252.487C685.542 252.487 673.222 249.378 662.613 243.162C652.053 236.896 643.799 228.012 637.849 216.508C631.95 204.956 629 191.25 629 175.39C629 163.251 630.735 152.408 634.206 142.863C637.725 133.318 642.634 125.216 648.93 118.559C655.226 111.853 662.613 106.762 671.09 103.287C679.568 99.7622 688.789 98 698.754 98C707.182 98 715.04 99.2238 722.328 101.671C729.615 104.07 736.085 107.496 741.737 111.951C747.438 116.405 752.123 121.692 755.792 127.811C759.461 133.929 761.865 140.685 763.005 148.076H734.895Z" fill="white"/>
<path d="M788.854 250.431V100.056H845.966C857.666 100.056 867.482 102.063 875.414 106.077C883.396 110.091 889.42 115.72 893.485 122.965C897.6 130.16 899.657 138.555 899.657 148.149C899.657 157.793 897.575 166.163 893.41 173.261C889.296 180.31 883.223 185.768 875.191 189.635C867.16 193.453 857.294 195.362 845.594 195.362H827.663L835.246 172.747H841.876C848.717 172.747 854.319 171.817 858.682 169.957C863.045 168.048 866.267 165.282 868.35 161.66C870.481 157.988 871.547 153.485 871.547 148.149C871.547 142.814 870.481 138.262 868.35 134.492C866.218 130.674 862.97 127.786 858.608 125.828C854.245 123.821 848.618 122.818 841.727 122.818H816.443V250.431H788.854ZM867.532 182.292L905.234 250.431H874.447L837.414 182.292H867.532Z" fill="white"/>
<path d="M942.516 250.431H913.068L966.685 100.056H1000.74L1054.44 250.431H1024.99L984.309 130.895H983.12L942.516 250.431Z" fill="white"/>
<path d="M1197.56 100.056V250.431H1173.02L1101.25 148.003H1099.99V250.431H1072.4V100.056H1097.09L1168.78 202.558H1170.12V100.056H1197.56Z" fill="white"/>
<path d="M1218.83 122.891V100.056H1340.34V122.891H1293.27V250.431H1265.9V122.891H1218.83Z" fill="white"/>
<path d="M1440.44 141.394C1439.75 134.982 1436.82 129.989 1431.67 126.416C1426.56 122.842 1419.92 121.056 1411.74 121.056C1405.99 121.056 1401.05 121.912 1396.94 123.625C1392.82 125.339 1389.68 127.664 1387.49 130.601C1385.31 133.538 1384.2 136.891 1384.15 140.66C1384.15 143.793 1384.87 146.51 1386.31 148.81C1387.79 151.111 1389.8 153.069 1392.33 154.684C1394.86 156.251 1397.66 157.572 1400.73 158.649C1403.81 159.726 1406.9 160.632 1410.03 161.366L1424.31 164.89C1430.06 166.212 1435.58 167.999 1440.89 170.251C1446.24 172.502 1451.03 175.341 1455.24 178.768C1459.5 182.194 1462.88 186.331 1465.35 191.177C1467.83 196.023 1469.07 201.701 1469.07 208.211C1469.07 217.022 1466.79 224.781 1462.23 231.487C1457.67 238.144 1451.08 243.358 1442.45 247.127C1433.87 250.847 1423.49 252.707 1411.29 252.707C1399.44 252.707 1389.16 250.896 1380.43 247.274C1371.75 243.651 1364.96 238.365 1360.05 231.414C1355.2 224.463 1352.57 215.994 1352.17 206.009H1379.31C1379.71 211.246 1381.35 215.603 1384.22 219.078C1387.1 222.554 1390.84 225.148 1395.45 226.861C1400.11 228.575 1405.32 229.431 1411.07 229.431C1417.07 229.431 1422.32 228.55 1426.83 226.788C1431.39 224.977 1434.96 222.48 1437.54 219.299C1440.12 216.068 1441.43 212.299 1441.48 207.991C1441.43 204.075 1440.27 200.844 1437.99 198.299C1435.71 195.705 1432.51 193.551 1428.4 191.838C1424.33 190.075 1419.57 188.509 1414.12 187.138L1396.79 182.733C1384.25 179.551 1374.33 174.729 1367.04 168.268C1359.81 161.758 1356.19 153.118 1356.19 142.349C1356.19 133.489 1358.62 125.73 1363.48 119.073C1368.38 112.416 1375.05 107.252 1383.48 103.58C1391.91 99.8601 1401.45 98 1412.11 98C1422.92 98 1432.39 99.8601 1440.52 103.58C1448.7 107.252 1455.12 112.367 1459.78 118.926C1464.44 125.437 1466.84 132.926 1466.99 141.394H1440.44Z" fill="white"/>
<path d="M685.609 468.768H634V318.393H686.65C701.771 318.393 714.76 321.403 725.617 327.424C736.524 333.396 744.903 341.987 750.753 353.196C756.603 364.406 759.528 377.818 759.528 393.433C759.528 409.098 756.578 422.559 750.678 433.817C744.828 445.076 736.375 453.716 725.32 459.737C714.314 465.757 701.077 468.768 685.609 468.768ZM661.589 445.198H684.271C694.88 445.198 703.729 443.289 710.819 439.471C717.908 435.604 723.238 429.852 726.807 422.216C730.377 414.531 732.161 404.937 732.161 393.433C732.161 381.93 730.377 372.385 726.807 364.798C723.238 357.161 717.958 351.459 710.968 347.69C704.027 343.871 695.4 341.962 685.089 341.962H661.589V445.198Z" fill="white"/>
<path d="M792.931 468.768H763.482L817.099 318.393H851.158L904.85 468.768H875.401L834.724 349.231H833.534L792.931 468.768Z" fill="white"/>
<path d="M1049.65 393.58C1049.65 409.783 1046.58 423.66 1040.43 435.212C1034.33 446.716 1026 455.527 1015.44 461.646C1004.93 467.764 993.01 470.824 979.674 470.824C966.338 470.824 954.39 467.764 943.83 461.646C933.32 455.478 924.991 446.642 918.844 435.139C912.746 423.587 909.697 409.734 909.697 393.58C909.697 377.378 912.746 363.525 918.844 352.022C924.991 340.469 933.32 331.634 943.83 325.515C954.39 319.396 966.338 316.337 979.674 316.337C993.01 316.337 1004.93 319.396 1015.44 325.515C1026 331.634 1034.33 340.469 1040.43 352.022C1046.58 363.525 1049.65 377.378 1049.65 393.58ZM1021.91 393.58C1021.91 382.175 1020.1 372.556 1016.48 364.724C1012.92 356.843 1007.96 350.896 1001.61 346.882C995.266 342.819 987.953 340.788 979.674 340.788C971.395 340.788 964.082 342.819 957.736 346.882C951.391 350.896 946.408 356.843 942.789 364.724C939.22 372.556 937.435 382.175 937.435 393.58C937.435 404.986 939.22 414.629 942.789 422.51C946.408 430.342 951.391 436.289 957.736 440.352C964.082 444.366 971.395 446.373 979.674 446.373C987.953 446.373 995.266 444.366 1001.61 440.352C1007.96 436.289 1012.92 430.342 1016.48 422.51C1020.1 414.629 1021.91 404.986 1021.91 393.58Z" fill="white"/>
</svg>
