<svg width="2286" height="569" viewBox="0 0 2286 569" fill="none" xmlns="http://www.w3.org/2000/svg">
<path fill-rule="evenodd" clip-rule="evenodd" d="M226.119 29.1111L200.2 1.53794C245.015 -4.25124 363.263 3.17256 477.732 79.1812C479.221 89.6792 478.9 100.144 478.9 100.144L487.336 104.722L487.384 104.794L487.4 104.687L487.572 104.792C492.303 112.938 497.087 125.084 500.142 139.375C503.839 156.668 504.892 176.575 500.581 195.612C496.239 214.794 487.996 230.624 479.926 242.204C473.962 250.76 468.275 256.741 464.539 260.017C449.917 260.324 422.696 270.159 414.913 304.254C391.465 317.708 354.652 331.157 306.025 331.157C259.576 331.157 212.194 317.669 176.576 291.549C141.101 265.535 117.277 227.027 117.277 176.329C117.277 136 135.303 104.497 158.164 81.3285C181.101 58.0844 212.455 39.2517 230.639 33.0013L226.119 29.1111ZM426.989 95.267C417.978 105.116 409.55 109.841 407.144 111.122C354.52 99.3779 335.561 70.8148 335.561 70.8148C385.198 70.4936 430 82.8803 462.78 103.834C462.78 103.834 445.036 97.8015 426.989 95.267Z" fill="#3164FA"/>
<path d="M199.462 36.7383C86.6325 59.5219 0.519531 161.391 0.519531 284.576C0.519531 440.316 131.654 569 293.417 569C414.209 569 514.758 494.858 567.332 395.664C497.412 412.31 413.932 382.714 413.398 318.019C388.23 331.007 351.987 342.536 306.025 342.536C257.581 342.536 207.755 328.507 169.889 300.738C131.878 272.865 105.941 231.114 105.941 176.329C105.941 132.272 125.718 98.039 150.11 73.3196C164.223 59.1529 183.57 45.7082 199.462 36.7383Z" fill="#3164FA"/>
<path d="M511.225 136.987C509.696 129.836 507.741 123.073 505.519 116.927C535.85 139.681 559.472 170.734 557.504 214.001C554.669 276.319 517.17 300.838 493.162 304.924C504.687 285.514 495.082 273.254 491.241 269.168C489.373 267.179 485.516 263.831 478.891 261.741C482.169 258.136 485.704 253.765 489.213 248.727C497.959 236.181 506.909 219.011 511.636 198.134C516.395 177.114 515.18 155.485 511.225 136.987Z" fill="#3164FA"/>
<path fill-rule="evenodd" clip-rule="evenodd" d="M1726.19 82.9085C1701.5 61.7779 1675.43 50 1633.92 50C1562 50 1511.22 106.261 1510.13 173.19L1510.12 176.093C1510.12 246.761 1559.51 300.801 1634.61 300.801C1677.14 300.801 1710.76 283.48 1734.76 263.043V161.198L1693.95 198.61V243.644C1679.2 254.729 1658.97 262.003 1635.98 262.003C1587.66 262.003 1555.32 226.356 1554.38 177.592L1554.35 174.709C1554.35 128.29 1588.31 89.4916 1632.21 89.4916C1662.39 89.4916 1680.92 99.19 1699.44 115.125L1726.19 82.9085ZM2030.75 174.709C2030.75 106.465 1979.3 50 1905.55 50C1832.61 50 1780.8 106.275 1779.7 173.214L1779.68 176.093C1779.68 244.337 1831.13 300.801 1904.86 300.801C1977.82 300.801 2029.63 244.527 2030.73 177.588L2030.75 174.709ZM947.949 296.645L842.31 52.4249H803.211L697.572 296.645L739.75 296.643L822.074 103.348L905.003 296.643L947.949 296.645ZM1492.06 296.645L1386.42 52.4249H1347.32L1241.68 296.645L1283.86 296.643L1366.18 103.348L1449.11 296.643L1492.06 296.645ZM2243.98 221.819L2115.36 54.1568H2076.27V296.645H2117.77V124.132L2250.16 296.645H2285.48V54.1568H2243.98V221.819ZM1823.92 174.709C1823.92 127.597 1857.19 89.4916 1904.86 89.4916C1952.18 89.4916 1985.51 127.156 1986.48 173.327L1986.49 176.093C1986.49 223.205 1953.22 261.31 1905.55 261.31C1858.24 261.31 1824.92 223.646 1823.95 177.473L1823.92 174.709ZM1175.47 74.6483C1160 59.1554 1136.29 50 1106.05 50H998.835V296.485H1041.1L1041.1 220.577L1041.06 220.596V165.627L1041.1 165.632L1041.1 89.4378H1102.62C1133.86 89.4378 1152.01 103.192 1152.44 129.344L1152.44 130.988L1152.41 132.701C1151.56 157.053 1132.51 172.186 1102.96 172.186L1084.77 172.179L1063 210.56L1094.02 210.568L1153.13 296.485H1203.3L1138.35 203.172L1140.51 202.509C1172.35 192.363 1194.9 168.671 1195.39 129.838L1195.4 127.819C1195.4 106.339 1188.18 88.382 1175.47 74.6483Z" fill="#3164FA"/>
<path d="M791.877 434.137C790.883 430.959 789.512 428.114 787.764 425.603C786.055 423.053 783.989 420.875 781.565 419.071C779.181 417.266 776.439 415.912 773.34 415.01C770.24 414.068 766.863 413.598 763.207 413.598C756.65 413.598 750.809 415.226 745.683 418.482C740.557 421.739 736.524 426.525 733.584 432.842C730.683 439.119 729.232 446.77 729.232 455.794C729.232 464.896 730.683 472.606 733.584 478.923C736.484 485.239 740.518 490.046 745.683 493.341C750.849 496.598 756.849 498.226 763.684 498.226C769.883 498.226 775.247 497.049 779.777 494.695C784.347 492.341 787.863 489.006 790.327 484.69C792.791 480.335 794.022 475.235 794.022 469.389L799.029 470.154H765.889V453.087H815.42V467.564C815.42 477.883 813.195 486.809 808.745 494.342C804.294 501.875 798.175 507.681 790.387 511.762C782.598 515.803 773.658 517.823 763.565 517.823C752.319 517.823 742.445 515.332 733.941 510.349C725.477 505.327 718.861 498.206 714.093 488.986C709.364 479.727 707 468.741 707 456.029C707 446.299 708.391 437.609 711.172 429.958C713.994 422.308 717.927 415.814 722.974 410.478C728.02 405.103 733.941 401.023 740.736 398.237C747.531 395.412 754.922 394 762.909 394C769.664 394 775.962 394.981 781.804 396.943C787.645 398.865 792.83 401.611 797.36 405.182C801.93 408.752 805.685 412.989 808.626 417.894C811.566 422.798 813.493 428.212 814.407 434.137H791.877Z" fill="#3164FA"/>
<path d="M835.125 516.176V395.648H880.901C890.279 395.648 898.147 397.256 904.505 400.474C910.902 403.691 915.73 408.203 918.988 414.009C922.287 419.777 923.936 426.506 923.936 434.196C923.936 441.925 922.267 448.634 918.929 454.323C915.631 459.972 910.763 464.347 904.326 467.447C897.888 470.507 889.981 472.037 880.603 472.037H866.232L872.309 453.911H877.623C883.107 453.911 887.597 453.165 891.094 451.674C894.59 450.144 897.173 447.928 898.842 445.024C900.551 442.082 901.405 438.472 901.405 434.196C901.405 429.919 900.551 426.27 898.842 423.249C897.134 420.189 894.531 417.874 891.034 416.305C887.537 414.696 883.027 413.892 877.504 413.892H857.238V516.176H835.125ZM898.187 461.561L928.406 516.176H903.73L874.047 461.561H898.187Z" fill="#3164FA"/>
<path d="M958.288 516.176H934.685L977.659 395.648H1004.96L1047.99 516.176H1024.39L991.786 420.365H990.832L958.288 516.176Z" fill="#3164FA"/>
<path d="M1162.71 395.648V516.176H1143.04L1085.52 434.078H1084.51V516.176H1062.39V395.648H1082.18L1139.64 477.804H1140.71V395.648H1162.71Z" fill="#3164FA"/>
<path d="M1179.76 413.951V395.648H1277.15V413.951H1239.42V516.176H1217.49V413.951H1179.76Z" fill="#3164FA"/>
<path d="M1360.59 428.781C1360.03 423.642 1357.69 419.64 1353.56 416.776C1349.46 413.911 1344.14 412.479 1337.58 412.479C1332.97 412.479 1329.02 413.166 1325.72 414.539C1322.42 415.912 1319.9 417.776 1318.15 420.13C1316.4 422.484 1315.51 425.172 1315.47 428.193C1315.47 430.704 1316.04 432.881 1317.2 434.725C1318.39 436.569 1320 438.139 1322.03 439.433C1324.05 440.689 1326.3 441.748 1328.76 442.611C1331.22 443.474 1333.71 444.2 1336.21 444.789L1347.66 447.614C1352.26 448.673 1356.7 450.105 1360.95 451.91C1365.24 453.715 1369.07 455.99 1372.45 458.737C1375.87 461.483 1378.57 464.798 1380.56 468.682C1382.54 472.567 1383.54 477.118 1383.54 482.336C1383.54 489.398 1381.71 495.617 1378.05 500.992C1374.4 506.328 1369.11 510.506 1362.2 513.527C1355.32 516.509 1347 518 1337.22 518C1327.73 518 1319.48 516.548 1312.49 513.645C1305.53 510.742 1300.09 506.504 1296.16 500.933C1292.26 495.362 1290.16 488.574 1289.84 480.57H1311.59C1311.91 484.769 1313.22 488.26 1315.53 491.046C1317.83 493.832 1320.83 495.911 1324.53 497.284C1328.26 498.657 1332.44 499.344 1337.05 499.344C1341.85 499.344 1346.07 498.638 1349.68 497.225C1353.34 495.774 1356.2 493.773 1358.26 491.223C1360.33 488.633 1361.38 485.612 1361.42 482.159C1361.38 479.021 1360.45 476.431 1358.62 474.391C1356.79 472.312 1354.23 470.585 1350.93 469.212C1347.67 467.8 1343.86 466.544 1339.49 465.446L1325.6 461.915C1315.55 459.364 1307.6 455.5 1301.76 450.321C1295.96 445.103 1293.06 438.178 1293.06 429.546C1293.06 422.445 1295 416.226 1298.9 410.89C1302.83 405.555 1308.18 401.415 1314.93 398.473C1321.69 395.491 1329.34 394 1337.88 394C1346.54 394 1354.13 395.491 1360.65 398.473C1367.21 401.415 1372.35 405.515 1376.09 410.773C1379.82 415.991 1381.75 421.994 1381.87 428.781H1360.59Z" fill="#3164FA"/>
<path d="M1481.21 516.176H1439.85V395.648H1482.05C1494.17 395.648 1504.58 398.061 1513.28 402.887C1522.02 407.673 1528.74 414.559 1533.43 423.543C1538.12 432.528 1540.46 443.278 1540.46 455.794C1540.46 468.349 1538.1 479.138 1533.37 488.162C1528.68 497.186 1521.9 504.111 1513.04 508.937C1504.22 513.763 1493.61 516.176 1481.21 516.176ZM1461.96 497.284H1480.14C1488.65 497.284 1495.74 495.754 1501.42 492.694C1507.1 489.594 1511.37 484.984 1514.24 478.864C1517.1 472.704 1518.53 465.014 1518.53 455.794C1518.53 446.574 1517.1 438.923 1514.24 432.842C1511.37 426.721 1507.14 422.151 1501.54 419.13C1495.98 416.069 1489.06 414.539 1480.8 414.539H1461.96V497.284Z" fill="#3164FA"/>
<path d="M1567.23 516.176H1543.63L1586.61 395.648H1613.9L1656.94 516.176H1633.34L1600.73 420.365H1599.78L1567.23 516.176Z" fill="#3164FA"/>
<path d="M1773 455.912C1773 468.898 1770.54 480.021 1765.61 489.28C1760.72 498.501 1754.05 505.563 1745.58 510.467C1737.16 515.371 1727.6 517.823 1716.91 517.823C1706.22 517.823 1696.65 515.371 1688.18 510.467C1679.76 505.523 1673.08 498.442 1668.16 489.222C1663.27 479.962 1660.82 468.859 1660.82 455.912C1660.82 442.925 1663.27 431.822 1668.16 422.602C1673.08 413.343 1679.76 406.261 1688.18 401.356C1696.65 396.452 1706.22 394 1716.91 394C1727.6 394 1737.16 396.452 1745.58 401.356C1754.05 406.261 1760.72 413.343 1765.61 422.602C1770.54 431.822 1773 442.925 1773 455.912ZM1750.77 455.912C1750.77 446.77 1749.32 439.061 1746.42 432.783C1743.56 426.466 1739.58 421.699 1734.5 418.482C1729.41 415.226 1723.55 413.598 1716.91 413.598C1710.28 413.598 1704.42 415.226 1699.33 418.482C1694.24 421.699 1690.25 426.466 1687.35 432.783C1684.49 439.061 1683.06 446.77 1683.06 455.912C1683.06 465.053 1684.49 472.782 1687.35 479.099C1690.25 485.377 1694.24 490.144 1699.33 493.4C1704.42 496.617 1710.28 498.226 1716.91 498.226C1723.55 498.226 1729.41 496.617 1734.5 493.4C1739.58 490.144 1743.56 485.377 1746.42 479.099C1749.32 472.782 1750.77 465.053 1750.77 455.912Z" fill="#3164FA"/>
</svg>
